<?xml version="1.0" encoding="utf8" standalone="no"?>
<svg viewBox="0 0 187.5 187.5" xmlns="http://www.w3.org/2000/svg">
<g transform="matrix(.83316,0,0,.83316,420.0042,-144.8536)">
<path d="m-354,232.36218-89,89-6.08494,22.70929 21.59984-5.78765 89.70337-89.70337c0,0 8.30639-7.96792 0-16.21827-7.80534-7.75268-15.83268-.36757-16.21827,0z" fill="none" stroke="#000" stroke-width="4.5"/>
<path d="m-424.5334,334.23756c0,0-4.68607,1.97503-6.82719-.24103s-1.08772-6.71004-1.08772-6.71004-3.79681,1.96474-5.34508-.25821-2.17891-3.49614-1.3558-5.74656 .20192-3.20359.20192-3.20359" fill="none" stroke="#000" stroke-width="2.29793"/>
<path d="m-447.40541,341.8757 4.6919-4.02163" fill="none" stroke="#000" stroke-width="6.25"/>
<path d="m-432.14054,327.46488c4.35675-4.35675 93.83783-92.49729 93.83783-92.49729" fill="none" stroke="#000" stroke-width="2.75"/>
<path d="m-335.39459,238.29372a8.47568,8.87928 0 1,1 -16.95136,0 8.47568,8.87928 0 1,1 16.95136,0z" stroke="#000" stroke-linecap="round" stroke-linejoin="round" stroke-width="2.75" transform="matrix(.70879,.14408,.40256,.82549,-193.8763,87.71530)"/>
</g>
</svg>
